General
Complete name                            : Star Trek (2009) (HD 720p).m4v
Format                                   : MPEG-4
Format profile                           : Base Media / Version 2
Codec ID                                 : mp42
File size                                : 5.23 GiB
Duration                                 : 2h 6mn
Overall bit rate mode                    : Variable
Overall bit rate                         : 5 901 Kbps
Movie name                               : Star Trek
Performer                                : Chris Pine, Zachary Quinto, Eric Bana, Anton Yelchin, Simon Pegg, Zoe Saldana, Karl Urban, Bruce Greenwood, John Cho, Leonard Nimoy, Winona Ryder, Ben Cross, Greg Ellis, Chris Hemsworth, Jennifer Morrison, Scottie Thompson, Paul McGillion, Lucia Rijker, Rachel Nichols, Faran Tahir, Clifton Collins Jr., Jimmy Bennett, Greg Grunberg, Lisa Vidal, Jacob Kogan, Tyler Perry, Amanda Foreman, Diora Baird, Wil Wheaton
Genre                                    : Science Fiction, Action, Adventure
Recorded date                            : 2009-05-07
Encoded date                             : UTC 2013-02-04 18:38:59
Tagged date                              : UTC 2013-02-13 02:36:06
Writing application                      : HandBrake 5235svn 2013020301
Cover                                    : Yes
desc                                     : The fate of the galaxy rests in the hands of bitter rivals. One, James Kirk, is a delinquent, thrill-seeking Iowa farm boy. The other, Spock, a Vulcan, was raised in a logic-based society that rejects all emotion. As fiery instinct clashes with calm reason, their unlikely but powerful partnership is the only thing capable of leading their crew through unimaginable danger, boldly going where no one has gone before. The human adventure has begun again.

Video #1
ID                                       : 1
Format                                   : AVC
Format/Info                              : Advanced Video Codec
Format profile                           : High@L3.1
Format settings, CABAC                   : Yes
Format settings, ReFrames                : 4 frames
Codec ID                                 : avc1
Codec ID/Info                            : Advanced Video Coding
Duration                                 : 2h 6mn
Bit rate mode                            : Variable
Bit rate                                 : 4 925 Kbps
Width                                    : 1 280 pixels
Height                                   : 532 pixels
Display aspect ratio                     : 2.40:1
Frame rate mode                          : Variable
Frame rate                               : 23.976 fps
Minimum frame rate                       : 23.974 fps
Maximum frame rate                       : 25.147 fps
Color space                              : YUV
Chroma subsampling                       : 4:2:0
Bit depth                                : 8 bits
Scan type                                : Progressive
Bits/(Pixel*Frame)                       : 0.302
Stream size                              : 4.36 GiB (83%)
Writing library                          : x264 core 129
Encoding settings                        : cabac=1 / ref=4 / deblock=1:0:0 / analyse=0x3:0x133 / me=umh / subme=10 / psy=1 / psy_rd=1.00:0.15 / mixed_ref=1 / me_range=32 / chroma_me=1 / trellis=2 / 8x8dct=1 / cqm=0 / deadzone=21,11 / fast_pskip=1 / chroma_qp_offset=-3 / threads=12 / lookahead_threads=2 / sliced_threads=0 / nr=0 / decimate=1 / interlaced=0 / bluray_compat=0 / constrained_intra=0 / bframes=4 / b_pyramid=2 / b_adapt=2 / b_bias=0 / direct=3 / weightb=1 / open_gop=0 / weightp=2 / keyint=300 / keyint_min=30 / scenecut=40 / intra_refresh=0 / rc_lookahead=60 / rc=crf / mbtree=1 / crf=18.0 / qcomp=0.60 / qpmin=4 / qpmax=69 / qpstep=4 / vbv_maxrate=17500 / vbv_bufsize=17500 / crf_max=0.0 / nal_hrd=none / ip_ratio=1.40 / aq=1:1.00
Language                                 : English
Encoded date                             : UTC 2013-02-04 18:38:59
Tagged date                              : UTC 2013-02-04 22:28:15
Color primaries                          : BT.709
Transfer characteristics                 : BT.709
Matrix coefficients                      : BT.709

Audio #1
ID                                       : 2
Format                                   : AAC
Format/Info                              : Advanced Audio Codec
Format profile                           : LC
Codec ID                                 : 40
Duration                                 : 2h 6mn
Bit rate mode                            : Variable
Bit rate                                 : 329 Kbps
Maximum bit rate                         : 496 Kbps
Channel(s)                               : 2 channels
Channel positions                        : Front: L R
Sampling rate                            : 48.0 KHz
Compression mode                         : Lossy
Delay relative to video                  : 83ms
Stream size                              : 298 MiB (6%)
Language                                 : English
Encoded date                             : UTC 2013-02-04 18:38:59
Tagged date                              : UTC 2013-02-04 22:28:14

Audio #2
ID                                       : 3
Format                                   : AC-3
Format/Info                              : Audio Coding 3
Mode extension                           : CM (complete main)
Format settings, Endianness              : Big
Codec ID                                 : ac-3
Duration                                 : 2h 6mn
Bit rate mode                            : Constant
Bit rate                                 : 640 Kbps
Channel(s)                               : 6 channels
Channel positions                        : Front: L C R, Side: L R, LFE
Sampling rate                            : 48.0 KHz
Bit depth                                : 16 bits
Compression mode                         : Lossy
Delay relative to video                  : 83ms
Stream size                              : 581 MiB (11%)
Language                                 : English
Encoded date                             : UTC 2013-02-04 18:38:59
Tagged date                              : UTC 2013-02-04 22:28:14